<?xml version="1.0" encoding="utf-8"?>
<svg version="1.0" xmlns="http://www.w3.org/2000/svg" width="1200.000000pt" height="1200.000000pt" viewBox="0 0 1200.000000 1200.000000" preserveAspectRatio="xMidYMid meet">
  <g transform="matrix(0.292768, 0, 0, -0.212884, -997.369, 2366.67)" fill="#000000" stroke="none" style="">
    <path d="M 5309.03 10437.2 C 5237.29 10359.9 5046 9966.14 4959.55 9723.14 C 4817.91 9321.84 4709.39 8758.51 4709.39 8417.49 C 4709.39 8344.02 4700.19 8323.29 4656.05 8283.72 C 4576.96 8215.9 4486.83 8059.52 4461.08 7950.25 C 4448.2 7884.31 4442.68 7705.32 4448.2 7405.76 C 4455.56 6981.85 4457.4 6957.35 4492.35 6946.05 C 4549.37 6929.09 4604.55 6951.7 4645.01 7011.99 C 4841.83 7307.79 4977.94 7490.54 5023.92 7524.45 C 5121.41 7594.16 5231.77 7616.77 5489.28 7616.77 C 5846.12 7614.89 5857.16 7609.24 6145.94 7209.82 C 6291.25 7008.22 6337.23 6957.35 6372.18 6957.35 C 6456.79 6957.35 6458.63 6979.96 6453.11 7498.08 L 6447.6 7984.16 L 6394.26 8093.44 C 6362.99 8153.73 6305.97 8234.74 6263.66 8274.3 L 6188.24 8345.9 L 6166.17 8592.71 C 6114.67 9182.42 5939.93 9766.44 5664.02 10273.2 C 5537.11 10503.1 5421.23 10557.7 5309.03 10437.2 Z M 5544.47 9304.88 C 5660.35 9255.89 5724.72 9108.94 5686.1 8986.48 C 5630.92 8815.03 5415.71 8754.74 5279.6 8871.55 C 5141.64 8992.13 5174.75 9229.52 5342.14 9304.88 C 5415.71 9336.91 5469.05 9336.91 5544.47 9304.88 Z" style=""/>
    <path d="M 5724.72 7285.18 C 5684.26 7256.92 5684.26 7251.27 5684.26 6780.25 C 5684.26 6343.15 5686.1 6301.71 5717.37 6273.44 C 5759.67 6233.88 5801.98 6232 5838.77 6271.56 C 5864.52 6296.05 5868.19 6369.53 5868.19 6778.37 C 5868.19 7251.27 5868.19 7256.92 5827.73 7285.18 C 5805.66 7302.13 5781.74 7315.32 5776.23 7315.32 C 5770.71 7315.32 5746.8 7302.13 5724.72 7285.18 Z" style=""/>
    <path d="M 5091.98 7275.76 C 5062.55 7258.8 5058.87 7213.59 5058.87 6778.37 C 5058.87 6262.14 5062.55 6241.42 5158.2 6241.42 C 5239.13 6241.42 5242.81 6260.25 5242.81 6759.53 C 5242.81 7194.74 5240.97 7236.19 5209.7 7264.45 C 5171.07 7300.25 5137.97 7304.02 5091.98 7275.76 Z" style=""/>
    <path d="M 5393.64 7273.87 C 5378.92 7258.8 5371.56 7157.06 5371.56 6938.51 C 5371.56 6608.8 5378.92 6580.54 5456.18 6580.54 C 5544.47 6580.54 5555.5 6618.22 5555.5 6925.33 C 5555.5 7155.18 5549.98 7221.12 5526.07 7255.03 C 5494.8 7300.25 5428.59 7309.67 5393.64 7273.87 Z" style=""/>
  </g>
  <text style="white-space: pre; fill: rgb(51, 51, 51); font-family: Arial, sans-serif; font-size: 28px;" x="417.523" y="650.744" transform="matrix(2.14122, 0, 0, 2.25341, -599.582, -273.392)"> </text>
  <circle style="fill: rgb(216, 216, 216); stroke: rgb(0, 0, 0); opacity: 0.24; transform-box: fill-box; transform-origin: 50% 50%; stroke-width: 0px;" cx="563.624" cy="386.604" r="175.035" transform="matrix(2.54013, 0.030459, -0.035518, 2.9621, 29.2697, 210.289)"/>
</svg>